<svg xmlns="http://www.w3.org/2000/svg" width="72" height="72" viewBox="0 0 72 72">
  <g id="Group_13" data-name="Group 13" transform="translate(-1814 -2257)">
    <circle id="Ellipse_1" data-name="Ellipse 1" cx="36" cy="36" r="36" transform="translate(1814 2257)" fill="#ffbc57"/>
    <path id="Icon_awesome-angle-right" data-name="Icon awesome-angle-right" d="M24.328,26.787,8.934,42.181a2.705,2.705,0,0,1-3.837,0L2.538,39.623a2.705,2.705,0,0,1,0-3.837L13.45,24.874,2.538,13.962a2.705,2.705,0,0,1,0-3.837L5.085,7.544a2.705,2.705,0,0,1,3.837,0L24.316,22.938A2.709,2.709,0,0,1,24.328,26.787Z" transform="translate(1836.731 2268.137)" fill="#051340"/>
  </g>
</svg>
