<svg xmlns="http://www.w3.org/2000/svg" width="72" height="72" viewBox="0 0 72 72">
  <g id="Group_14" data-name="Group 14" transform="translate(-37 -2257)">
    <circle id="Ellipse_2" data-name="Ellipse 2" cx="36" cy="36" r="36" transform="translate(37 2257)" fill="#ffbc57"/>
    <path id="Icon_awesome-angle-left" data-name="Icon awesome-angle-left" d="M2.545,23.231,18.217,7.559a2.754,2.754,0,0,1,3.907,0l2.6,2.6a2.754,2.754,0,0,1,0,3.907l-11.1,11.12L24.74,36.3a2.754,2.754,0,0,1,0,3.907l-2.6,2.616a2.754,2.754,0,0,1-3.907,0L2.557,27.149a2.758,2.758,0,0,1-.012-3.918Z" transform="translate(59.357 2267.81)" fill="#051340"/>
  </g>
</svg>
