<svg xmlns="http://www.w3.org/2000/svg" width="19.723" height="19.722" viewBox="0 0 19.723 19.722">
  <path id="Icon_ionic-ios-call" data-name="Icon ionic-ios-call" d="M23.643,19.945a16.566,16.566,0,0,0-3.461-2.316c-1.037-.5-1.417-.488-2.151.041-.611.442-1.006.852-1.71.7a10.2,10.2,0,0,1-3.435-2.542,10.126,10.126,0,0,1-2.542-3.435c-.149-.709.262-1.1.7-1.71.529-.734.544-1.114.041-2.151A16.239,16.239,0,0,0,8.769,5.071c-.755-.755-.924-.59-1.34-.442A7.626,7.626,0,0,0,6.2,5.281,3.7,3.7,0,0,0,4.728,6.837c-.293.632-.632,1.807,1.094,4.878A27.217,27.217,0,0,0,10.607,18.1h0l.005.005.005.005h0A27.323,27.323,0,0,0,17,22.892c3.07,1.725,4.246,1.386,4.878,1.094a3.639,3.639,0,0,0,1.556-1.474,7.626,7.626,0,0,0,.652-1.227C24.234,20.869,24.4,20.7,23.643,19.945Z" transform="translate(-4.49 -4.502)" fill="#fff"/>
</svg>
