<svg xmlns="http://www.w3.org/2000/svg" width="28.347" height="19.625" viewBox="0 0 28.347 19.625">
  <g id="Icon_ionic-ios-mail" data-name="Icon ionic-ios-mail" transform="translate(-3.375 -7.875)">
    <path id="Path_1" data-name="Path 1" d="M31.491,10.356l-7.332,7.468a.132.132,0,0,0,0,.191L29.29,23.48a.884.884,0,0,1,0,1.254.888.888,0,0,1-1.254,0l-5.111-5.445a.14.14,0,0,0-.2,0L21.48,20.557a5.486,5.486,0,0,1-3.911,1.649,5.6,5.6,0,0,1-3.993-1.7l-1.2-1.22a.14.14,0,0,0-.2,0L7.068,24.734a.888.888,0,0,1-1.254,0,.884.884,0,0,1,0-1.254l5.131-5.465a.145.145,0,0,0,0-.191L3.607,10.356a.134.134,0,0,0-.232.1V25.395a2.187,2.187,0,0,0,2.181,2.181H29.542a2.187,2.187,0,0,0,2.181-2.181V10.451A.136.136,0,0,0,31.491,10.356Z" transform="translate(0 -0.075)" fill="#fff"/>
    <path id="Path_2" data-name="Path 2" d="M17.575,20.352a3.7,3.7,0,0,0,2.664-1.118L30.931,8.352a2.142,2.142,0,0,0-1.349-.477H5.575a2.128,2.128,0,0,0-1.349.477L14.917,19.234A3.705,3.705,0,0,0,17.575,20.352Z" transform="translate(-0.026)" fill="#fff"/>
  </g>
</svg>
