<svg xmlns="http://www.w3.org/2000/svg" width="25" height="25" viewBox="0 0 25 25">
  <path id="phone" d="M5.922,12.833l-.033-.1A24.756,24.756,0,0,1,4.5,5.889,1.393,1.393,0,0,1,5.889,4.5h4.167a2.778,2.778,0,0,1,2.778,2.778v2.778a2.778,2.778,0,0,1-2.778,2.778H8.893A22.3,22.3,0,0,0,21.167,25.106V23.944a2.778,2.778,0,0,1,2.778-2.778h2.778A2.778,2.778,0,0,1,29.5,23.944v4.167A1.621,1.621,0,0,1,28.111,29.5a21.418,21.418,0,0,1-6.944-1.389A25.211,25.211,0,0,1,5.922,12.833Z" transform="translate(-4.5 -4.5)" fill="#ffbc57" fill-rule="evenodd"/>
</svg>
