<svg xmlns="http://www.w3.org/2000/svg" width="19.752" height="16.043" viewBox="0 0 19.752 16.043">
  <path id="Icon_awesome-twitter" data-name="Icon awesome-twitter" d="M17.722,7.379c.013.175.013.351.013.526A11.439,11.439,0,0,1,6.216,19.423,11.44,11.44,0,0,1,0,17.606a8.375,8.375,0,0,0,.978.05A8.107,8.107,0,0,0,6,15.927a4.055,4.055,0,0,1-3.785-2.807,5.105,5.105,0,0,0,.765.063,4.282,4.282,0,0,0,1.065-.138A4.049,4.049,0,0,1,.8,9.071v-.05a4.077,4.077,0,0,0,1.83.514A4.054,4.054,0,0,1,1.379,4.12,11.507,11.507,0,0,0,9.726,8.356a4.57,4.57,0,0,1-.1-.927,4.052,4.052,0,0,1,7.006-2.77A7.97,7.97,0,0,0,19.2,3.682a4.037,4.037,0,0,1-1.78,2.231,8.116,8.116,0,0,0,2.331-.627,8.7,8.7,0,0,1-2.03,2.093Z" transform="translate(0 -3.381)" fill="#fff"/>
</svg>
