<svg xmlns="http://www.w3.org/2000/svg" width="19.893" height="19.893" viewBox="0 0 19.893 19.893">
  <path id="Icon_ionic-logo-whatsapp" data-name="Icon ionic-logo-whatsapp" d="M12.377,2.25a9.728,9.728,0,0,0-9.766,9.691,9.59,9.59,0,0,0,1.4,5l-1.763,5.2,5.407-1.718a9.782,9.782,0,0,0,14.486-8.485A9.728,9.728,0,0,0,12.377,2.25Zm4.856,13.371a2.522,2.522,0,0,1-1.727,1.113c-.458.024-.471.355-2.968-.73a10.189,10.189,0,0,1-4.117-3.893,4.789,4.789,0,0,1-.921-2.6,2.767,2.767,0,0,1,.95-2.03A.956.956,0,0,1,9.126,7.2c.2,0,.324-.006.469,0s.364-.03.553.472.641,1.739.7,1.865a.452.452,0,0,1,0,.434,1.7,1.7,0,0,1-.265.4c-.13.14-.274.313-.39.42s-.265.247-.129.5a7.473,7.473,0,0,0,1.322,1.764,6.814,6.814,0,0,0,1.958,1.3c.245.133.391.119.543-.041s.65-.7.826-.94.34-.194.566-.1,1.428.735,1.673.868.408.2.467.306A2.051,2.051,0,0,1,17.233,15.621Z" transform="translate(-2.25 -2.25)" fill="#fff"/>
</svg>
