<svg id="Layer_1" data-name="Layer 1" xmlns="http://www.w3.org/2000/svg" viewBox="0 0 382.83 424.59"><defs><style>.cls-1,.cls-3,.cls-4{fill:#fff;}.cls-2{fill:#f69320;}.cls-3{font-size:50px;font-family:KoHo-Bold, KoHo;font-weight:700;letter-spacing:0.54em;}.cls-4{font-size:35px;font-family:KoHo-Regular, KoHo;letter-spacing:0.4em;}.cls-5{letter-spacing:0.37em;}.cls-6{letter-spacing:0.38em;}.cls-7{letter-spacing:0.38em;}.cls-8{letter-spacing:0.4em;}</style></defs><polygon class="cls-1" points="33.92 85.42 33.92 122.94 197.62 34.26 357.92 122.94 357.92 88.83 195.92 -2.12 33.92 85.42"/><polygon class="cls-1" points="72.57 29.72 72.57 86.56 106.67 71.78 100.99 17.21 72.57 29.72"/><path class="cls-1" d="M189.66,205.93v-64.8l-78.44-43.2-38.65,25L65.75,248,189.66,316.2V225.25C157.83,207.06,189.66,205.93,189.66,205.93Zm-32.4,58L98.15,229.8V193.42l59.11,35.24ZM159,193.42l-59.12-34.1V122.94L159,158.18Z"/><polygon class="cls-2" points="284.02 97.93 311.36 117.25 235.14 158.18 235.14 255.95 295.39 228.66 295.39 197.97 259.01 216.16 266.97 176.94 328.36 139.99 328.36 248.04 202.17 316.2 202.17 143.4 284.02 97.93"/><rect class="cls-1" x="180.06" y="89.46" width="13.14" height="17.43"/><rect class="cls-1" x="202.17" y="89.46" width="13.14" height="17.43"/><rect class="cls-1" x="180.06" y="66.73" width="13.14" height="17.43"/><rect class="cls-1" x="202.17" y="66.73" width="13.14" height="17.43"/><text class="cls-3" transform="translate(0.74 377)">BRISHNA</text><text class="cls-4" transform="translate(99.85 422.47)">G<tspan class="cls-5" x="37.27" y="0">L</tspan><tspan x="69.68" y="0">O</tspan><tspan class="cls-6" x="107.48" y="0">B</tspan><tspan class="cls-7" x="143.99" y="0">A</tspan><tspan class="cls-8" x="180.35" y="0">L</tspan></text></svg>